<svg xmlns="http://www.w3.org/2000/svg" viewBox="0 0 960 620">
  <defs>
    <filter id="wmGlow">
      <feGaussianBlur stdDeviation="1.5" result="blur"/>
      <feMerge><feMergeNode in="blur"/><feMergeNode in="SourceGraphic"/></feMerge>
    </filter>
    <linearGradient id="budgetBar" x1="0%" y1="0%" x2="100%" y2="0%">
      <stop offset="0%" stop-color="#1D9E75"/>
      <stop offset="60%" stop-color="#1D9E75"/>
      <stop offset="85%" stop-color="#EF9F27"/>
      <stop offset="100%" stop-color="#EF9F27"/>
    </linearGradient>
  </defs>
  <rect width="960" height="620" fill="#0d0d1a"/>
  <!-- Terminal title bar -->
  <rect x="0" y="0" width="960" height="36" fill="#111128" opacity="0.9"/>
  <circle cx="24" cy="18" r="7" fill="#FF5F57"/>
  <circle cx="46" cy="18" r="7" fill="#FFBD2E"/>
  <circle cx="68" cy="18" r="7" fill="#28C840"/>
  <text x="480" y="24" text-anchor="middle" fill="#555" font-family="monospace" font-size="13">synthcode — world model</text>
  <!-- Title -->
  <text x="30" y="68" font-family="monospace" font-size="16" fill="#7c5cfc" font-weight="bold" filter="url(#wmGlow)">◆ World Model — Symbolic Invariant Inventory</text>
  <!-- Budget bar -->
  <rect x="20" y="82" width="920" height="44" rx="5" fill="#111128"/>
  <text x="35" y="100" font-family="monospace" font-size="12" fill="#555">Invariant Budget</text>
  <rect x="180" y="90" width="600" height="16" rx="3" fill="#1a1a2e"/>
  <rect x="180" y="90" width="420" height="16" rx="3" fill="url(#budgetBar)" fill-opacity="0.5"/>
  <text x="800" y="103" font-family="monospace" font-size="12" fill="#cccccc">1.37 MB / 2.00 MB</text>
  <text x="35" y="118" font-family="monospace" font-size="11" fill="#555">68.5% used • 0.63 MB available • compaction recommended at 90%</text>
  <!-- Invariant Groups Table -->
  <!-- Header -->
  <rect x="20" y="136" width="920" height="26" rx="3" fill="#4A9FD8" fill-opacity="0.12"/>
  <g font-family="monospace" font-size="12" fill="#4A9FD8" font-weight="bold">
    <text x="35" y="154">GATE</text>
    <text x="180" y="154">INVARIANTS</text>
    <text x="310" y="154">SIZE</text>
    <text x="420" y="154">TRIGGERS</text>
    <text x="540" y="154">PASS RATE</text>
    <text x="680" y="154">AVG LATENCY</text>
    <text x="830" y="154">STATUS</text>
  </g>
  <!-- type_check group -->
  <rect x="20" y="166" width="920" height="52" fill="#ffffff" fill-opacity="0.015"/>
  <rect x="20" y="166" width="4" height="52" fill="#1D9E75" rx="1"/>
  <text x="35" y="184" font-family="monospace" font-size="13" fill="#9b7dff" font-weight="bold">type_check</text>
  <text x="35" y="200" font-family="monospace" font-size="10" fill="#555">  ├ type unification rules</text>
  <text x="35" y="212" font-family="monospace" font-size="10" fill="#555">  ├ borrow checker invariants</text>
  <text x="180" y="184" font-family="monospace" font-size="12" fill="#cccccc">247</text>
  <text x="310" y="184" font-family="monospace" font-size="12" fill="#cccccc">312 KB</text>
  <text x="420" y="184" font-family="monospace" font-size="12" fill="#cccccc">12,847</text>
  <text x="540" y="184" font-family="monospace" font-size="12" fill="#1D9E75">98.2%</text>
  <text x="680" y="184" font-family="monospace" font-size="12" fill="#555">2.3ms</text>
  <rect x="830" y="174" width="55" height="16" rx="3" fill="#1D9E75" fill-opacity="0.2"/>
  <text x="838" y="186" font-family="monospace" font-size="10" fill="#1D9E75">ACTIVE</text>
  <!-- dep_graph group -->
  <rect x="20" y="222" width="920" height="52" fill="#ffffff" fill-opacity="0.01"/>
  <rect x="20" y="222" width="4" height="52" fill="#4A9FD8" rx="1"/>
  <text x="35" y="240" font-family="monospace" font-size="13" fill="#9b7dff" font-weight="bold">dep_graph</text>
  <text x="35" y="256" font-family="monospace" font-size="10" fill="#555">  ├ cycle detection rules</text>
  <text x="35" y="268" font-family="monospace" font-size="10" fill="#555">  ├ import resolution table</text>
  <text x="180" y="240" font-family="monospace" font-size="12" fill="#cccccc">183</text>
  <text x="310" y="240" font-family="monospace" font-size="12" fill="#cccccc">248 KB</text>
  <text x="420" y="240" font-family="monospace" font-size="12" fill="#cccccc">9,214</text>
  <text x="540" y="240" font-family="monospace" font-size="12" fill="#1D9E75">99.1%</text>
  <text x="680" y="240" font-family="monospace" font-size="12" fill="#555">3.1ms</text>
  <rect x="830" y="230" width="55" height="16" rx="3" fill="#1D9E75" fill-opacity="0.2"/>
  <text x="838" y="242" font-family="monospace" font-size="10" fill="#1D9E75">ACTIVE</text>
  <!-- io_boundary group -->
  <rect x="20" y="278" width="920" height="52" fill="#ffffff" fill-opacity="0.015"/>
  <rect x="20" y="278" width="4" height="52" fill="#EF9F27" rx="1"/>
  <text x="35" y="296" font-family="monospace" font-size="13" fill="#9b7dff" font-weight="bold">io_boundary</text>
  <text x="35" y="312" font-family="monospace" font-size="10" fill="#555">  ├ unsafe block policies</text>
  <text x="35" y="324" font-family="monospace" font-size="10" fill="#555">  ├ FFI call boundaries</text>
  <text x="180" y="296" font-family="monospace" font-size="12" fill="#cccccc">89</text>
  <text x="310" y="296" font-family="monospace" font-size="12" fill="#cccccc">156 KB</text>
  <text x="420" y="296" font-family="monospace" font-size="12" fill="#cccccc">4,562</text>
  <text x="540" y="296" font-family="monospace" font-size="12" fill="#EF9F27">94.7%</text>
  <text x="680" y="296" font-family="monospace" font-size="12" fill="#555">5.4ms</text>
  <rect x="830" y="286" width="55" height="16" rx="3" fill="#1D9E75" fill-opacity="0.2"/>
  <text x="838" y="298" font-family="monospace" font-size="10" fill="#1D9E75">ACTIVE</text>
  <!-- syntax_check group -->
  <rect x="20" y="334" width="920" height="52" fill="#ffffff" fill-opacity="0.01"/>
  <rect x="20" y="334" width="4" height="52" fill="#7c5cfc" rx="1"/>
  <text x="35" y="352" font-family="monospace" font-size="13" fill="#9b7dff" font-weight="bold">syntax_check</text>
  <text x="35" y="368" font-family="monospace" font-size="10" fill="#555">  ├ AST well-formedness</text>
  <text x="35" y="380" font-family="monospace" font-size="10" fill="#555">  ├ pattern exhaustiveness</text>
  <text x="180" y="352" font-family="monospace" font-size="12" fill="#cccccc">312</text>
  <text x="310" y="352" font-family="monospace" font-size="12" fill="#cccccc">198 KB</text>
  <text x="420" y="352" font-family="monospace" font-size="12" fill="#cccccc">15,321</text>
  <text x="540" y="352" font-family="monospace" font-size="12" fill="#1D9E75">99.8%</text>
  <text x="680" y="352" font-family="monospace" font-size="12" fill="#555">1.4ms</text>
  <rect x="830" y="342" width="55" height="16" rx="3" fill="#1D9E75" fill-opacity="0.2"/>
  <text x="838" y="354" font-family="monospace" font-size="10" fill="#1D9E75">ACTIVE</text>
  <!-- assert_gate group -->
  <rect x="20" y="390" width="920" height="52" fill="#ffffff" fill-opacity="0.015"/>
  <rect x="20" y="390" width="4" height="52" fill="#1D9E75" rx="1"/>
  <text x="35" y="408" font-family="monospace" font-size="13" fill="#9b7dff" font-weight="bold">assert_gate</text>
  <text x="35" y="424" font-family="monospace" font-size="10" fill="#555">  ├ runtime assertion templates</text>
  <text x="35" y="436" font-family="monospace" font-size="10" fill="#555">  ├ invariant propagation</text>
  <text x="180" y="408" font-family="monospace" font-size="12" fill="#cccccc">156</text>
  <text x="310" y="408" font-family="monospace" font-size="12" fill="#cccccc">224 KB</text>
  <text x="420" y="408" font-family="monospace" font-size="12" fill="#cccccc">7,893</text>
  <text x="540" y="408" font-family="monospace" font-size="12" fill="#1D9E75">96.4%</text>
  <text x="680" y="408" font-family="monospace" font-size="12" fill="#555">4.2ms</text>
  <rect x="830" y="398" width="55" height="16" rx="3" fill="#1D9E75" fill-opacity="0.2"/>
  <text x="838" y="410" font-family="monospace" font-size="10" fill="#1D9E75">ACTIVE</text>
  <!-- contract group -->
  <rect x="20" y="446" width="920" height="52" fill="#ffffff" fill-opacity="0.01"/>
  <rect x="20" y="446" width="4" height="52" fill="#EF9F27" rx="1"/>
  <text x="35" y="464" font-family="monospace" font-size="13" fill="#9b7dff" font-weight="bold">contract</text>
  <text x="35" y="480" font-family="monospace" font-size="10" fill="#555">  ├ pre/post condition specs</text>
  <text x="35" y="492" font-family="monospace" font-size="10" fill="#555">  ├ behavioral contracts</text>
  <text x="180" y="464" font-family="monospace" font-size="12" fill="#cccccc">128</text>
  <text x="310" y="464" font-family="monospace" font-size="12" fill="#cccccc">228 KB</text>
  <text x="420" y="464" font-family="monospace" font-size="12" fill="#cccccc">5,417</text>
  <text x="540" y="464" font-family="monospace" font-size="12" fill="#1D9E75">97.8%</text>
  <text x="680" y="464" font-family="monospace" font-size="12" fill="#555">3.8ms</text>
  <rect x="830" y="454" width="55" height="16" rx="3" fill="#1D9E75" fill-opacity="0.2"/>
  <text x="838" y="466" font-family="monospace" font-size="10" fill="#1D9E75">ACTIVE</text>
  <!-- Totals -->
  <line x1="20" y1="508" x2="940" y2="508" stroke="#333" stroke-width="0.5"/>
  <text x="35" y="530" font-family="monospace" font-size="12" fill="#cccccc" font-weight="bold">TOTAL</text>
  <text x="180" y="530" font-family="monospace" font-size="12" fill="#cccccc" font-weight="bold">1,115</text>
  <text x="310" y="530" font-family="monospace" font-size="12" fill="#cccccc" font-weight="bold">1.37 MB</text>
  <text x="420" y="530" font-family="monospace" font-size="12" fill="#cccccc" font-weight="bold">55,254</text>
  <text x="540" y="530" font-family="monospace" font-size="12" fill="#1D9E75" font-weight="bold">97.7%</text>
  <text x="680" y="530" font-family="monospace" font-size="12" fill="#555">3.4ms avg</text>
  <!-- Compaction hint -->
  <rect x="20" y="545" width="920" height="24" rx="3" fill="#EF9F27" fill-opacity="0.06"/>
  <text x="35" y="561" font-family="monospace" font-size="11" fill="#EF9F27">⚠ Tip: Run :world-compact to defragment invariant storage and reclaim ~180KB</text>
  <!-- Status bar -->
  <rect x="0" y="580" width="960" height="40" fill="#111128" opacity="0.7"/>
  <g font-family="monospace" font-size="12" fill="#555555">
    <text x="30" y="605">F1 Help</text>
    <text x="130" y="605">F2 Chat</text>
    <text x="230" y="605">F3 Gates</text>
    <text x="340" y="605">F4 Trace</text>
    <text x="450" y="605" fill="#7c5cfc">F5 World</text>
    <text x="830" y="605">q Quit</text>
  </g>
</svg>
